<svg xmlns="http://www.w3.org/2000/svg" viewBox="0 0 64 64" fill="none">
  <defs>
    <radialGradient id="phone-bg" cx="50%" cy="40%" r="70%">
      <stop offset="0" stop-color="#f5efe1" />
      <stop offset="1" stop-color="#e1d5bd" />
    </radialGradient>
    <linearGradient id="phone-body" x1="18" y1="50" x2="50" y2="18" gradientUnits="userSpaceOnUse">
      <stop offset="0" stop-color="#1f5b4d" />
      <stop offset="1" stop-color="#13332b" />
    </linearGradient>
  </defs>
  <circle cx="32" cy="32" r="28" fill="url(#phone-bg)" stroke="#cabfa8" stroke-width="2" />
  <path fill="url(#phone-body)" d="M24.8 16.7 18.9 19a2 2 0 0 0-1.1 2.8c5.4 10.6 12.9 18.1 23.5 23.5a2 2 0 0 0 2.8-1.1l2.2-6a2 2 0 0 0-.7-2.3l-5.4-4a2 2 0 0 0-2.2-.1l-3 1.7c-3.3-2.2-6-5-8.3-8.3l1.7-3a2 2 0 0 0-.1-2.2l-4-5.4a2 2 0 0 0-2.3-.7Z" />
  <path d="M37 16c4.8 0 11.8 7 11.8 11.8" stroke="#102422" stroke-width="2.6" stroke-linecap="round" />
  <path d="M37 21.8c3 0 7 4 7 7" stroke="#102422" stroke-width="2.1" stroke-linecap="round" />
</svg>
