<svg xmlns="http://www.w3.org/2000/svg" viewBox="0 0 64 64" fill="none">
  <rect x="4" y="4" width="56" height="56" rx="18" fill="#e3ede9" />
  <path fill="#1f5b4d" d="M24.6 16.4 18 19.3a2 2 0 0 0-.9 2.8c5.2 10.2 12.6 17.6 22.8 22.8a2 2 0 0 0 2.8-.9l2.9-6.6a2 2 0 0 0-.7-2.5l-6.1-4.4a2 2 0 0 0-2.4.1l-2.5 1.9c-2.8-1.9-5.1-4.2-7-7l1.9-2.5a2 2 0 0 0 .1-2.4l-4.4-6.1a2 2 0 0 0-2.5-.7Z" />
  <path d="M36.5 13.5c5.5 0 14 8.5 14 14" stroke="#1f5b4d" stroke-width="2.5" stroke-linecap="round" />
  <path d="M36.5 20.5c3.5 0 7.5 4 7.5 7.5" stroke="#1f5b4d" stroke-width="2" stroke-linecap="round" />
</svg>
