<svg xmlns="http://www.w3.org/2000/svg" viewBox="0 0 64 64" fill="none">
  <defs>
    <radialGradient id="address-bg" cx="50%" cy="38%" r="70%">
      <stop offset="0" stop-color="#f5efe1" />
      <stop offset="1" stop-color="#decfb0" />
    </radialGradient>
    <linearGradient id="address-pin" x1="24" y1="48" x2="44" y2="20" gradientUnits="userSpaceOnUse">
      <stop offset="0" stop-color="#1f5b4d" />
      <stop offset="1" stop-color="#173c33" />
    </linearGradient>
  </defs>
  <circle cx="32" cy="32" r="28" fill="url(#address-bg)" stroke="#cabfa8" stroke-width="2" />
  <path d="M32 18c-6 0-11 4.9-11 10.9 0 7.1 10 18.1 10.5 18.7a0.7 0.7 0 0 0 1 0C33 47 43 36 43 28.9 43 22.9 38 18 32 18Z" fill="url(#address-pin)" stroke="#102422" stroke-width="2" stroke-linejoin="round" />
  <circle cx="32" cy="29" r="4.2" fill="#f6f0e5" stroke="#102422" stroke-width="1.8" />
  <path d="M20 46c3.8-2.4 8-3.8 12.4-3.8 4.3 0 8.5 1.4 12.3 3.8" stroke="#c4b79f" stroke-width="2.2" stroke-linecap="round" />
</svg>
