<svg xmlns="http://www.w3.org/2000/svg" viewBox="0 0 120 120" fill="none">
  <defs>
    <linearGradient id="mark-bg" x1="20" y1="12" x2="102" y2="108" gradientUnits="userSpaceOnUse">
      <stop offset="0" stop-color="#f8f4ec" />
      <stop offset="1" stop-color="#e2ded2" />
    </linearGradient>
    <linearGradient id="mark-body" x1="28" y1="60" x2="92" y2="88" gradientUnits="userSpaceOnUse">
      <stop offset="0" stop-color="#245445" />
      <stop offset="1" stop-color="#19362f" />
    </linearGradient>
    <linearGradient id="mark-paper" x1="40" y1="22" x2="78" y2="60" gradientUnits="userSpaceOnUse">
      <stop offset="0" stop-color="#fefdfa" />
      <stop offset="1" stop-color="#f0ede3" />
    </linearGradient>
  </defs>
  <rect x="10" y="10" width="100" height="100" rx="28" fill="url(#mark-bg)" stroke="#d5cfc2" stroke-width="2" />
  <path d="M42 26h36v26H42z" fill="url(#mark-paper)" stroke="#c3bbab" stroke-width="2.5" stroke-linejoin="round" />
  <rect x="32" y="44" width="56" height="40" rx="8" fill="url(#mark-body)" />
  <rect x="38" y="52" width="44" height="22" rx="4" fill="#f5f1e8" />
  <path d="M30 68h60" stroke="#132722" stroke-width="4" stroke-linecap="round" />
  <rect x="28" y="78" width="64" height="18" rx="6" fill="#102422" opacity=".9" />
  <g fill="#f5f1e8">
    <rect x="36" y="82" width="8" height="4" rx="1.5" />
    <rect x="48" y="82" width="8" height="4" rx="1.5" />
    <rect x="60" y="82" width="8" height="4" rx="1.5" />
    <rect x="72" y="82" width="8" height="4" rx="1.5" />
  </g>
  <path d="M38 32h44" stroke="#9b9381" stroke-width="2" stroke-linecap="round" />
  <path d="M44 38h32" stroke="#a69d8c" stroke-width="2" stroke-linecap="round" />
  <circle cx="42" cy="70" r="6" fill="#f8f4ec" stroke="#0f1d1a" stroke-width="2" />
  <circle cx="78" cy="70" r="6" fill="#f8f4ec" stroke="#0f1d1a" stroke-width="2" />
  <path d="M24 74c0-2.2 1.8-4 4-4h4v12h-4c-2.2 0-4-1.8-4-4v-4Z" fill="#e2ded2" />
  <path d="M92 70h4c2.2 0 4 1.8 4 4v4c0 2.2-1.8 4-4 4h-4V70Z" fill="#e2ded2" />
</svg>
