<svg xmlns="http://www.w3.org/2000/svg" viewBox="0 0 120 120" role="img" aria-hidden="true">
  <defs>
    <linearGradient id="typewriter-body" x1="15%" y1="10%" x2="85%" y2="90%">
      <stop offset="0%" stop-color="#19433a"/>
      <stop offset="100%" stop-color="#0f2622"/>
    </linearGradient>
    <linearGradient id="paper" x1="0%" y1="0%" x2="0%" y2="100%">
      <stop offset="0%" stop-color="#faf6ec"/>
      <stop offset="100%" stop-color="#ebe2d2"/>
    </linearGradient>
  </defs>
  <circle cx="60" cy="60" r="56" fill="#f5efe2" stroke="#1f5b4d" stroke-width="3" opacity="0.95"/>
  <g fill="none" stroke="#1f5b4d" stroke-width="3" stroke-linecap="round" stroke-linejoin="round">
    <rect x="28" y="30" width="64" height="20" rx="6" fill="url(#paper)"/>
    <path d="M28 44h64"/>
    <path d="M34 30v-6a4 4 0 0 1 4-4h44a4 4 0 0 1 4 4v6"/>
    <path d="M26 50h68a6 6 0 0 1 6 6v30H20V56a6 6 0 0 1 6-6Z" fill="url(#typewriter-body)"/>
    <path d="M88 36h6"/>
    <path d="M26 56h68"/>
    <rect x="34" y="74" width="52" height="14" rx="5" fill="#d9c8aa"/>
    <circle cx="34" cy="68" r="4" fill="#d9c8aa"/>
    <circle cx="46" cy="68" r="4" fill="#d9c8aa"/>
    <circle cx="58" cy="68" r="4" fill="#d9c8aa"/>
    <circle cx="70" cy="68" r="4" fill="#d9c8aa"/>
    <circle cx="82" cy="68" r="4" fill="#d9c8aa"/>
    <path d="M24 86h72"/>
    <path d="M36 92h48"/>
    <path d="M22 56v-6l-6-3"/>
    <path d="M98 50v-6l6-3"/>
  </g>
</svg>
